<?xml version="1.0" standalone="no"?>
<!DOCTYPE svg PUBLIC "-//W3C//DTD SVG 20010904//EN"
 "http://www.w3.org/TR/2001/REC-SVG-20010904/DTD/svg10.dtd">
<svg version="1.0" xmlns="http://www.w3.org/2000/svg"
 width="425.000000pt" height="468.000000pt" viewBox="0 0 425.000000 468.000000"
 preserveAspectRatio="xMidYMid meet">

<g transform="translate(0.000000,468.000000) scale(0.100000,-0.100000)"
fill="#000000" stroke="none">
<path d="M130 4397 l0 -115 38 -34 c43 -39 65 -77 427 -728 136 -245 306 -550
377 -678 l130 -234 -20 -21 c-29 -32 -112 -160 -112 -172 1 -5 98 -86 216
-180 153 -121 222 -182 241 -213 14 -24 24 -44 22 -46 -2 -2 -116 86 -254 196
l-250 200 -23 -53 c-26 -60 -72 -212 -72 -240 0 -12 97 -96 290 -250 160 -128
290 -238 290 -245 0 -7 -5 -16 -10 -19 -6 -4 -137 95 -292 219 -232 185 -284
223 -291 210 -10 -18 -3 -327 8 -359 4 -11 276 -235 606 -498 l599 -479 97 11
c119 14 169 25 166 37 -1 5 -29 59 -64 119 -34 61 -99 178 -144 260 -44 83
-90 163 -100 178 -17 27 -17 31 -2 56 24 42 5 61 -23 22 -24 -35 -124 -90
-206 -114 -46 -14 -54 -14 -74 0 -40 28 -22 55 55 84 39 14 86 33 106 42 38
17 103 82 121 123 10 22 16 25 45 19 42 -8 43 9 2 30 -53 28 -110 87 -140 147
-37 74 -37 88 1 88 42 0 37 18 -7 26 -21 3 -44 13 -50 22 -18 22 -24 11 -27
-45 -3 -48 -32 -117 -61 -147 -17 -17 -71 -21 -93 -7 -7 4 -16 33 -19 63 -5
51 -4 55 17 61 32 8 60 -9 60 -38 0 -13 5 -27 10 -30 14 -9 13 58 -2 73 -7 7
-29 12 -50 12 l-39 0 7 53 c4 28 11 60 16 70 18 35 176 98 251 99 53 1 117
-31 225 -112 70 -53 84 -69 99 -111 10 -27 21 -49 25 -49 5 0 8 20 8 45 0 25
2 45 5 45 2 0 153 41 334 90 182 50 334 90 338 91 21 3 -47 17 -84 18 -24 1
-43 4 -43 9 0 4 14 27 30 52 16 25 30 48 30 51 0 3 -23 0 -52 -7 -68 -18 -202
-18 -262 0 -74 22 -112 58 -154 144 -32 67 -43 80 -82 99 -46 23 -180 43 -180
27 1 -5 116 -101 257 -213 232 -184 254 -205 234 -213 -13 -5 -29 -4 -35 0 -6
5 -125 100 -265 212 l-254 203 -46 -12 c-25 -6 -97 -36 -160 -66 l-113 -55
163 -131 c90 -72 166 -133 169 -136 3 -2 -22 9 -54 26 -32 17 -63 31 -70 31
-6 0 -63 41 -125 90 -63 50 -117 90 -119 90 -11 0 -132 -75 -132 -81 0 -4 18
-41 41 -83 38 -72 43 -96 16 -96 -16 0 -121 200 -111 210 20 18 217 127 329
181 153 74 223 93 335 87 131 -7 178 -37 241 -157 39 -76 81 -106 163 -122 78
-14 189 1 343 46 163 49 259 65 374 65 126 0 185 -13 288 -62 66 -32 101 -57
160 -117 42 -42 90 -97 106 -123 17 -27 33 -48 38 -48 13 0 99 124 128 185 54
113 72 205 72 365 1 168 -22 296 -77 440 -50 129 -71 166 -226 400 -208 313
-258 434 -231 554 22 100 78 152 273 254 l97 51 -47 42 c-59 52 -202 121 -308
148 -178 45 -333 49 -499 11 -44 -10 -152 -35 -240 -55 -174 -40 -297 -49
-373 -27 -50 15 -100 57 -153 129 -123 166 -349 161 -749 -14 -184 -81 -256
-104 -341 -110 -102 -7 -141 7 -210 78 -47 46 -66 59 -107 68 -95 20 -222 -15
-424 -115 -70 -35 -132 -64 -137 -64 -14 0 -20 25 -27 99 l-7 68 -61 35 c-33
20 -78 46 -98 58 l-38 22 0 -115z m2074 -687 l159 -240 269 0 c147 0 268 -4
268 -8 0 -5 -74 -75 -164 -157 l-164 -148 23 -37 c13 -20 85 -130 160 -245 75
-114 135 -208 133 -210 -2 -1 -122 65 -267 147 -230 130 -265 147 -280 135 -9
-7 -77 -67 -151 -132 -74 -65 -146 -128 -159 -139 l-24 -21 7 247 6 248 -37
23 c-21 13 -135 79 -253 146 -118 68 -222 129 -230 137 -12 12 23 14 251 14
l266 0 7 92 c3 50 6 158 6 240 0 81 3 148 8 148 4 0 79 -108 166 -240z m-616
-2022 l-3 -73 -52 -3 c-44 -3 -53 0 -67 20 -43 61 6 122 102 127 22 1 23 -1
20 -71z m255 -64 c53 -72 -83 -144 -282 -147 l-84 -2 -13 31 c-11 26 -11 35 1
50 11 16 26 19 92 18 43 -1 94 -5 114 -9 45 -9 114 23 131 60 14 31 18 31 41
-1z m97 -90 l20 -31 -33 -42 c-38 -49 -117 -91 -224 -117 -57 -14 -76 -16 -97
-6 -28 12 -63 70 -49 82 4 4 49 15 98 24 143 27 157 33 205 81 24 25 48 44 53
42 4 -1 17 -16 27 -33z m-62 -326 c-3 -7 -20 -14 -39 -15 l-34 -2 30 14 c38
18 48 18 43 3z"/>
<path d="M715 2993 c-85 -99 -194 -261 -250 -373 -170 -339 -222 -767 -139
-1139 79 -350 235 -625 498 -878 420 -404 1002 -565 1574 -437 491 110 920
443 1151 894 57 111 118 266 109 275 -2 2 -13 2 -25 -1 -15 -4 -28 -24 -43
-67 -130 -360 -430 -704 -775 -892 -174 -95 -412 -170 -619 -196 -119 -14
-344 -7 -469 16 -696 126 -1246 674 -1369 1365 -29 162 -28 419 1 584 49 277
182 564 358 769 96 114 96 113 88 136 -3 11 -10 21 -14 21 -5 0 -39 -35 -76
-77z"/>
<path d="M726 2797 c-15 -19 -26 -44 -26 -56 0 -52 71 -111 133 -111 29 0 41
7 68 41 34 43 34 43 -14 70 -10 6 -22 21 -27 34 -6 16 -15 23 -24 19 -9 -3
-27 4 -42 15 -35 28 -38 27 -68 -12z m84 -43 c0 -7 -5 -16 -11 -20 -8 -4 -8
-9 0 -17 8 -8 15 -6 24 7 13 18 15 18 40 1 22 -14 25 -21 17 -36 -25 -47 -72
-44 -122 6 -32 32 -34 46 -12 80 15 23 17 23 40 8 13 -8 24 -21 24 -29z"/>
<path d="M620 2630 c-30 -30 -26 -74 13 -116 26 -29 42 -37 80 -41 41 -5 52
-2 72 17 31 29 32 68 4 104 -44 56 -131 74 -169 36z m132 -37 c48 -46 33 -93
-30 -93 -25 0 -43 9 -68 34 -40 40 -41 49 -13 77 27 27 72 20 111 -18z"/>
<path d="M997 2608 c-115 -154 -208 -374 -237 -563 -17 -110 -15 -305 5 -411
49 -271 180 -513 379 -702 206 -194 434 -301 726 -339 105 -13 144 -14 245 -4
313 30 553 138 777 349 145 137 307 392 248 392 -4 0 -25 -30 -45 -68 -148
-270 -408 -485 -707 -583 -436 -142 -921 -22 -1248 310 -47 48 -109 121 -138
164 -289 420 -288 989 2 1397 47 66 47 67 32 79 -11 10 -19 5 -39 -21z"/>
<path d="M560 2506 c0 -7 11 -21 25 -30 23 -15 23 -18 10 -48 -12 -29 -17 -33
-48 -30 -23 2 -36 -2 -40 -11 -4 -12 15 -16 105 -22 115 -7 150 1 116 27 -9 7
-48 39 -86 71 -74 61 -82 65 -82 43z m110 -101 l23 -24 -39 6 c-47 7 -46 6
-38 27 9 23 27 20 54 -9z"/>
<path d="M750 2360 c-13 -8 -13 -10 2 -10 9 0 20 5 23 10 8 13 -5 13 -25 0z"/>
<path d="M492 2340 c2 -8 36 -24 74 -36 76 -23 77 -21 -41 -47 -94 -20 -85
-38 35 -71 93 -27 127 -29 104 -7 -5 5 -38 18 -74 28 l-65 20 85 20 c116 27
116 42 -2 72 -51 13 -99 26 -107 29 -8 3 -12 0 -9 -8z"/>
<path d="M3313 2182 c-35 -8 -63 -18 -63 -21 0 -3 21 -14 46 -25 147 -60 316
-266 369 -450 17 -57 16 -63 -5 -168 -12 -61 -24 -116 -27 -123 -4 -11 5 -11
49 -1 30 7 59 16 65 19 30 19 82 220 98 379 6 63 4 71 -25 126 -60 113 -175
207 -305 250 -87 29 -132 32 -202 14z"/>
<path d="M3011 2146 c-37 -10 -48 -19 -72 -61 -29 -51 -26 -65 14 -65 40 0
168 -70 222 -121 62 -58 115 -154 140 -254 28 -109 21 -136 -58 -221 -52 -56
-54 -60 -40 -81 9 -13 22 -23 30 -23 28 0 103 61 143 117 36 50 40 63 40 113
0 39 5 62 15 70 9 7 17 11 19 9 2 -2 7 -42 11 -89 l6 -85 -46 -65 -46 -65 72
-3 c40 -2 75 1 79 5 21 25 60 139 71 206 16 96 8 135 -57 265 -80 159 -191
261 -365 332 -77 32 -108 35 -178 16z"/>
<path d="M620 2086 c0 -14 -3 -27 -7 -29 -7 -4 -76 4 -155 18 -20 3 -28 0 -28
-9 0 -10 26 -18 91 -27 l91 -12 -4 -28 c-3 -17 1 -30 8 -33 8 -3 15 10 19 37
3 23 9 57 12 75 4 25 2 32 -11 32 -10 0 -16 -9 -16 -24z"/>
<path d="M420 1945 c0 -11 12 -15 50 -15 54 0 55 -2 44 -59 -7 -31 -8 -32 -52
-29 -29 2 -47 -1 -49 -9 -4 -10 17 -13 84 -13 48 0 98 -3 111 -6 16 -5 22 -2
22 10 0 12 -10 16 -38 16 -21 0 -41 2 -43 4 -3 3 -3 24 -1 46 l4 42 39 -4 c25
-2 39 1 39 8 0 17 -35 24 -127 24 -67 0 -83 -3 -83 -15z"/>
<path d="M420 1776 c0 -7 14 -16 30 -19 21 -5 30 -12 30 -26 0 -11 3 -26 6
-34 4 -10 -5 -18 -29 -26 -18 -6 -34 -18 -34 -26 0 -21 3 -20 108 24 131 54
131 69 2 99 -115 26 -113 26 -113 8z m150 -45 c25 -7 25 -7 -9 -19 -46 -16
-51 -15 -51 8 0 21 15 24 60 11z"/>
<path d="M525 1620 c-49 -10 -92 -18 -94 -19 -3 -1 0 -6 5 -11 7 -7 29 -7 68
1 31 5 62 9 67 7 5 -2 -20 -26 -56 -53 -100 -78 -89 -87 66 -59 56 11 88 21
86 28 -5 12 -18 13 -97 1 l-55 -7 68 52 c65 51 85 81 50 79 -10 -1 -58 -10
-108 -19z"/>
<path d="M870 1532 c0 -24 54 -161 92 -234 175 -338 527 -581 907 -627 51 -7
95 -10 98 -8 4 4 -1083 877 -1092 877 -3 0 -5 -4 -5 -8z"/>
<path d="M572 1457 c-52 -18 -92 -36 -90 -42 3 -11 6 -11 59 0 34 6 37 5 48
-26 16 -45 16 -45 -34 -58 -30 -7 -45 -17 -45 -27 0 -9 6 -14 13 -12 6 3 50
18 97 33 47 15 89 31 94 36 18 16 -3 21 -39 9 -42 -14 -52 -8 -61 37 -6 28 -3
32 30 43 20 6 36 18 36 26 0 18 2 18 -108 -19z"/>
<path d="M3035 1424 c-55 -8 -261 -32 -457 -54 l-357 -40 -76 -41 c-42 -23
-75 -46 -73 -53 2 -6 35 -69 75 -141 l72 -130 132 -104 131 -104 56 27 c73 36
212 126 212 137 0 5 -101 89 -225 186 -123 98 -224 181 -225 186 0 4 12 7 28
7 21 0 81 -43 246 -176 l219 -175 44 43 c48 46 153 171 153 181 0 4 -43 41
-96 84 -88 70 -95 78 -73 84 28 7 22 10 121 -69 l76 -62 32 56 c17 31 35 66
40 79 5 13 25 31 44 40 19 9 42 25 52 36 17 18 16 19 -17 18 -19 -1 -79 -8
-134 -15z"/>
<path d="M636 1244 c-66 -34 -86 -48 -77 -57 9 -9 26 -3 70 21 32 18 61 32 65
32 4 0 -14 -30 -39 -67 -45 -67 -54 -93 -35 -93 6 0 51 21 101 46 61 30 88 49
81 56 -6 6 -30 -1 -71 -21 -33 -17 -61 -28 -61 -23 0 4 20 37 45 72 67 95 53
101 -79 34z"/>
<path d="M3255 1240 c-3 -5 13 -19 35 -30 40 -20 40 -21 25 -50 -21 -40 -30
-43 -66 -25 -21 11 -35 13 -41 7 -7 -7 19 -25 81 -56 50 -25 95 -46 101 -46
23 0 7 21 -30 40 -22 11 -40 23 -40 26 0 3 7 18 15 34 17 33 28 36 65 15 29
-17 50 -19 50 -6 0 11 -160 101 -178 101 -6 0 -13 -4 -17 -10z"/>
<path d="M727 1083 c-58 -37 -85 -59 -78 -66 11 -11 194 100 185 114 -8 14
-14 12 -107 -48z"/>
<path d="M3180 1102 c0 -5 25 -26 56 -47 31 -22 52 -41 47 -42 -6 -2 -42 0
-82 5 -108 13 -109 -2 -4 -77 57 -40 90 -58 97 -51 5 5 8 11 5 13 -2 2 -31 23
-64 46 l-60 43 75 -8 c41 -4 81 -8 89 -8 37 -3 15 28 -56 78 -74 53 -103 66
-103 48z"/>
<path d="M766 1029 l-87 -60 38 -52 c20 -29 38 -54 40 -56 2 -3 8 0 14 6 8 8
4 21 -16 47 -29 38 -28 58 3 75 17 9 24 5 47 -30 39 -55 59 -36 22 20 l-27 40
22 16 c30 20 30 21 58 -25 25 -41 34 -47 45 -30 4 7 -60 110 -69 110 -2 0 -42
-27 -90 -61z"/>
<path d="M903 1063 c13 -3 17 -11 14 -24 -3 -10 -1 -17 4 -13 5 3 9 14 9 25 0
13 -6 19 -22 18 -19 -1 -20 -2 -5 -6z"/>
<path d="M3085 969 c-9 -14 -2 -22 80 -84 46 -36 79 -55 85 -49 5 5 -24 35
-75 76 -47 37 -87 63 -90 57z"/>
<path d="M880 914 c-87 -73 -94 -80 -85 -93 4 -7 25 5 58 34 29 25 53 41 55
37 1 -5 -9 -39 -23 -75 -41 -111 -34 -112 76 -20 50 42 76 70 70 76 -6 6 -29
-7 -64 -37 -30 -25 -57 -46 -60 -46 -3 0 7 32 24 71 48 118 39 128 -51 53z"/>
<path d="M3035 920 c-3 -5 12 -40 34 -77 22 -37 39 -69 37 -71 -2 -2 -35 13
-74 32 -61 31 -72 33 -83 20 -7 -9 -8 -18 -3 -23 5 -4 39 -36 76 -70 83 -79
115 -74 37 5 l-53 54 68 -36 c39 -21 71 -33 77 -27 5 5 -6 33 -26 66 -19 32
-35 61 -35 65 0 3 22 -15 49 -42 33 -32 51 -44 56 -36 5 8 -18 38 -61 81 -67
68 -87 79 -99 59z"/>
<path d="M2281 855 c4 -5 23 -40 43 -77 l37 -67 32 11 c43 15 43 15 16 37 -13
10 -49 38 -79 62 -30 24 -52 40 -49 34z"/>
<path d="M2852 795 c0 -16 2 -22 5 -12 2 9 2 23 0 30 -3 6 -5 -1 -5 -18z"/>
<path d="M1060 782 c-75 -37 -104 -131 -54 -171 30 -24 43 -26 78 -10 36 17
23 40 -14 26 -59 -22 -81 39 -35 99 44 58 101 54 107 -9 4 -41 22 -42 26 -1 3
34 -20 69 -53 78 -11 3 -36 -2 -55 -12z"/>
<path d="M2866 761 c-4 -6 21 -46 55 -89 35 -42 64 -79 66 -81 2 -3 8 0 13 5
6 6 -11 35 -46 79 -74 93 -80 99 -88 86z"/>
<path d="M2820 719 c0 -6 9 -24 21 -41 12 -16 20 -30 18 -32 -2 -1 -18 -12
-36 -25 l-32 -22 -23 35 c-23 36 -33 43 -42 28 -4 -6 82 -147 110 -181 1 -1 7
0 13 3 7 5 1 22 -15 48 -26 40 -26 42 -8 55 48 36 52 35 80 -8 18 -28 29 -38
36 -31 7 7 -7 37 -46 96 -51 79 -76 103 -76 75z"/>
<path d="M1270 709 c-13 -9 -12 -10 2 -5 10 3 22 -2 28 -12 10 -15 10 -15 8 2
-4 24 -18 29 -38 15z"/>
<path d="M1200 682 c-42 -21 -84 -94 -75 -132 7 -28 49 -70 71 -70 29 0 72 30
93 63 56 91 -3 183 -89 139z m64 -25 c36 -27 15 -97 -39 -133 -23 -15 -27 -15
-50 0 -29 19 -32 44 -10 86 15 30 51 60 70 60 6 0 19 -6 29 -13z"/>
<path d="M1305 535 c-25 -53 -45 -98 -45 -101 0 -2 6 -4 14 -4 7 0 26 28 41
61 33 74 45 65 45 -32 0 -100 17 -96 73 17 26 52 47 96 47 99 0 3 -6 5 -14 5
-8 0 -27 -27 -42 -60 -15 -33 -30 -60 -35 -60 -4 0 -9 37 -11 82 -2 55 -7 83
-16 86 -8 2 -29 -32 -57 -93z"/>
<path d="M2643 620 c-48 -20 -56 -81 -18 -147 36 -60 100 -75 138 -31 21 25
23 78 2 78 -9 0 -15 -9 -15 -24 0 -25 -23 -56 -41 -56 -26 0 -53 25 -71 66
-18 42 -18 47 -4 70 18 26 45 31 64 12 9 -9 15 -9 23 -1 8 8 4 15 -12 27 -26
18 -34 19 -66 6z"/>
<path d="M2440 600 c0 -6 7 -10 15 -10 8 0 15 2 15 4 0 2 -7 6 -15 10 -8 3
-15 1 -15 -4z"/>
<path d="M2423 573 c-7 -3 -13 -12 -12 -21 0 -11 2 -12 6 -4 6 14 33 16 33 2
0 -5 -4 -10 -10 -10 -22 0 -50 -45 -50 -82 0 -60 24 -107 64 -123 72 -30 126
28 104 113 -10 40 -50 92 -71 92 -6 0 -20 8 -31 19 -12 10 -27 16 -33 14z m89
-94 c42 -57 18 -139 -36 -125 -31 8 -52 38 -61 87 -12 67 56 94 97 38z"/>
<path d="M1520 537 c-32 -16 -70 -83 -70 -125 0 -49 37 -82 94 -82 40 0 45 3
55 31 15 44 14 56 -6 62 -10 2 -26 8 -35 12 -13 5 -18 2 -18 -8 0 -9 9 -19 20
-22 43 -14 9 -62 -35 -51 -37 9 -51 46 -36 96 15 50 48 74 84 61 15 -6 27 -19
29 -32 4 -33 28 -36 28 -5 0 25 -30 66 -49 66 -5 0 -15 2 -23 5 -7 3 -24 -1
-38 -8z"/>
<path d="M1905 529 c-4 -6 0 -9 11 -7 14 2 18 -2 16 -17 -3 -16 -1 -17 8 -8 7
6 10 19 7 27 -7 18 -33 21 -42 5z"/>
<path d="M2335 500 c-4 -6 -4 -29 0 -50 6 -35 4 -40 -12 -40 -10 0 -28 -3 -40
-6 -24 -6 -26 -3 -37 49 -4 15 -13 27 -22 27 -10 0 -14 -6 -10 -17 3 -10 12
-57 22 -105 11 -58 21 -88 30 -88 10 0 13 14 11 52 -2 51 -2 52 31 59 29 6 34
4 43 -18 5 -13 9 -35 9 -49 0 -15 6 -24 15 -24 17 0 17 7 -11 144 -16 76 -19
83 -29 66z"/>
<path d="M1716 471 c-27 -30 -16 -62 32 -94 48 -32 56 -63 18 -73 -30 -7 -44
1 -56 32 -12 31 -30 31 -30 0 0 -72 119 -89 136 -20 8 33 -2 52 -47 82 -42 29
-45 56 -7 60 22 3 30 -2 38 -22 12 -32 30 -34 30 -3 0 52 -79 77 -114 38z"/>
<path d="M1130 470 c0 -5 5 -10 10 -10 6 0 10 5 10 10 0 6 -4 10 -10 10 -5 0
-10 -4 -10 -10z"/>
<path d="M1900 445 c-5 -13 -23 -56 -40 -96 -33 -78 -35 -89 -19 -89 5 0 15
14 21 31 9 27 14 30 46 27 31 -3 37 -7 44 -36 5 -19 15 -32 24 -32 9 0 14 6
11 13 -2 6 -15 56 -27 110 -23 100 -41 122 -60 72z m32 -66 c3 -21 0 -33 -9
-36 -24 -10 -34 11 -21 44 14 38 24 35 30 -8z"/>
<path d="M2010 361 c0 -91 3 -111 15 -111 11 0 15 17 17 72 l3 73 43 -73 c24
-39 47 -72 52 -72 6 0 10 47 10 110 0 95 -2 110 -16 110 -14 0 -16 -9 -10 -70
4 -38 4 -70 -1 -70 -4 0 -26 30 -48 67 -59 98 -65 95 -65 -36z"/>
</g>
</svg>
